<?xml version="1.0" encoding="UTF-8"?>
<svg width="120" height="30" viewBox="0 0 120 30" fill="none" xmlns="http://www.w3.org/2000/svg">
  <g transform="translate(20, 5)">
    <path d="M47.1 15.7c-3.2-2.4-7.8-3.7-11.8-3.7-5.6 0-10.6 2.1-14.4 5.6-.3.3 0 .7.3.5 4.2-2.4 9.4-3.9 14.8-3.9 3.6 0 7.6.8 11.3 2.3.5.3 1-.3-.2-.8z" fill="white"/>
    <path d="M48.9 17.7c-.4-.5-2.6-.2-3.6-.1-.3 0-.3-.2 0-.4 1.8-1.2 4.7-.9 5-.5.3.4-.1 3.2-1.7 4.5-.2.2-.5.1-.4-.1.4-.9 1.2-2.9.7-3.4z" fill="white"/>
    <path d="M44.9 9.3v-1.2c0-.2.1-.3.3-.3h6.1c.2 0 .3.1.3.3v1c0 .2-.2.4-.5.8l-3.2 4.5c1.2 0 2.4.1 3.5.6.2.1.3.3.3.5v1.2c0 .2-.2.4-.4.3-1.9-1-4.3-1.1-6.4 0-.2.1-.4-.1-.4-.3v-1.2c0-.2 0-.5.2-.8l3.7-5.2h-3.2c-.2 0-.3-.1-.3-.3z" fill="white"/>
    <path d="M38.2 19.5c-1.4 0-2.5-.4-3.4-1.3-.9-.9-1.3-2-1.3-3.4s.4-2.5 1.3-3.4c.9-.9 2-1.3 3.4-1.3 1.4 0 2.5.4 3.4 1.3.9.9 1.3 2 1.3 3.4s-.4 2.5-1.3 3.4c-.9.9-2 1.3-3.4 1.3zm0-1.8c.8 0 1.5-.3 2-.8.5-.5.8-1.2.8-2.1s-.3-1.6-.8-2.1c-.5-.5-1.2-.8-2-.8s-1.5.3-2 .8c-.5.5-.8 1.2-.8 2.1s.3 1.6.8 2.1c.5.5 1.2.8 2 .8z" fill="white"/>
    <path d="M28.7 14.4c0 .7 0 1.3-.3 1.9-.4.9-1.1 1.4-1.9 1.4-1.1 0-1.7-.8-1.7-2 0-2.4 2.1-2.8 4-.2.8zm1.9 4.6c-.1.1-.3.1-.4-.1-1.6-1.1-1.9-1.6-2.8-1.6-1.9 0-3.3 1.2-3.3 3.5 0 1.8 1 3 2.4 3 1.2 0 1.9-.6 2.3-1.4h.1v1c0 .2.1.3.3.3h1.8c.2 0 .3-.1.3-.3v-9.8c0-.2-.1-.3-.3-.3h-1.8c-.2 0-.3.1-.3.3v4.4c0 .4.1.7.1 1z" fill="white"/>
  </g>
</svg> 