<?xml version="1.0" encoding="UTF-8"?>
<svg width="120" height="30" viewBox="0 0 120 30" fill="none" xmlns="http://www.w3.org/2000/svg">
  <g transform="translate(20, 5)">
    <path d="M27.7 12.6c0-.8-.1-1.6-.2-2.3H14.2v4.3h7.6c-.3 1.6-1.2 3-2.6 3.9v3.3h4.2c2.4-2.2 3.8-5.5 3.8-9.2z" fill="#4285F4"/>
    <path d="M14.2 24c3.5 0 6.5-1.2 8.6-3.2l-4.2-3.3c-1.2.8-2.7 1.3-4.4 1.3-3.4 0-6.3-2.3-7.3-5.4H2.5v3.4C4.6 21 9.1 24 14.2 24z" fill="#34A853"/>
    <path d="M6.9 13.4c-.3-.8-.4-1.6-.4-2.4s.2-1.6.4-2.4V5.2H2.5C1.6 7 1 9 1 11s.6 4 1.5 5.8l3.4-3.4z" fill="#FBBC05"/>
    <path d="M14.2 6.2c1.9 0 3.6.7 5 1.9l3.8-3.8C20.6 2.1 17.6 1 14.2 1 9.1 1 4.6 4 2.5 8.2l3.4 3.4c1-3.1 3.9-5.4 7.3-5.4z" fill="#EA4335"/>
  </g>
</svg> 