<?xml version="1.0" encoding="UTF-8"?>
<svg width="120" height="30" viewBox="0 0 120 30" fill="none" xmlns="http://www.w3.org/2000/svg">
  <path d="M25.5 15C25.5 20.799 20.799 25.5 15 25.5C9.20101 25.5 4.5 20.799 4.5 15C4.5 9.20101 9.20101 4.5 15 4.5C20.799 4.5 25.5 9.20101 25.5 15ZM11.25 12.75C11.25 11.5074 12.2574 10.5 13.5 10.5C14.7426 10.5 15.75 11.5074 15.75 12.75C15.75 13.9926 14.7426 15 13.5 15C12.2574 15 11.25 13.9926 11.25 12.75ZM13.5 19.5C11.0147 19.5 9 17.4853 9 15C9 12.5147 11.0147 10.5 13.5 10.5C15.9853 10.5 18 12.5147 18 15C18 17.4853 15.9853 19.5 13.5 19.5Z" fill="white"/>
  <path d="M35 10.5H40M45 10.5H50M55 10.5H60M65 10.5H70M75 10.5H80M85 10.5H90M95 10.5H100M105 10.5H110" stroke="white" stroke-width="2"/>
</svg> 