<?xml version="1.0" encoding="UTF-8"?>
<svg width="120" height="30" viewBox="0 0 120 30" fill="none" xmlns="http://www.w3.org/2000/svg">
  <g transform="translate(20, 5)">
    <path d="M40.2 15.8c-.3.7-.7 1.3-1.2 1.8-.6.7-1.3 1.2-2 1.6-.7.4-1.5.5-2.3.5-.9 0-1.7-.2-2.3-.7-.6-.5-1.1-.9-1.5-1.4-.4-.5-.7-1.1-.9-1.8-.2-.7-.3-1.4-.3-2.2s.1-1.5.3-2.2c.2-.7.5-1.3.9-1.8.4-.5.9-1 1.5-1.4.6-.4 1.4-.6 2.3-.6.8 0 1.6.2 2.3.5.7.4 1.3.9 2 1.6.5.6.9 1.2 1.2 1.8.3.6.4 1.3.4 2 0 .7-.1 1.4-.4 2z" fill="white"/>
    <path d="M31.5 7.5c-.8 0-1.5.3-2.1.8-.6.5-1 1.2-1.2 2.1.4-.1.7-.2 1.1-.2.4 0 .8.1 1.2.2.4.1.7.3 1 .6.3.3.5.6.7.9.2.4.2.8.2 1.2 0 .4-.1.8-.2 1.2-.2.4-.4.7-.7.9-.3.3-.6.5-1 .6-.4.1-.8.2-1.2.2-.4 0-.8-.1-1.1-.2-.4-.1-.7-.3-1-.6-.3-.3-.5-.6-.7-.9-.2-.4-.2-.8-.2-1.2 0-.8.1-1.6.4-2.3.3-.7.6-1.4 1.1-1.9.5-.6 1.1-1 1.8-1.3.7-.3 1.5-.5 2.4-.5.1 0 .2 0 .3.1.1 0 .2.1.2.2 0 .1 0 .2-.1.3-.1.1-.2.1-.3.1-.2-.1-.3-.2-.5-.2z" fill="white"/>
  </g>
</svg> 