<?xml version="1.0" encoding="UTF-8"?>
<svg width="120" height="30" viewBox="0 0 120 30" fill="none" xmlns="http://www.w3.org/2000/svg">
  <g transform="translate(15, 5)">
    <path d="M0 0h9v9H0z" fill="#F25022"/>
    <path d="M10 0h9v9h-9z" fill="#7FBA00"/>
    <path d="M0 10h9v9H0z" fill="#00A4EF"/>
    <path d="M10 10h9v9h-9z" fill="#FFB900"/>
    <g transform="translate(25, 4)" fill="white">
      <path d="M0 0h2v10H0zM4 3h2v7H4zM8 3h2v7H8zM12 3h2v7h-2zM16 0h2v10h-2zM20 3h2v7h-2zM24 3h2v7h-2z"/>
    </g>
  </g>
</svg> 